<svg xmlns="http://www.w3.org/2000/svg" version="1.1" xmlns:xlink="http://www.w3.org/1999/xlink" xmlns:svgjs="http://svgjs.dev/svgjs" width="100%" height="100%" viewBox="0 0 1000 600"><rect width="1000" height="600" x="0" y="0" fill="#747bff"/><g><rect width="333.3333333333333" height="333.3333333333333" rx="13.333333333333334" ry="13.333333333333334" y="197.98927139496396" fill="#161b21" transform="matrix(0.7111686032238052,0,0,0.7111686032238052,0,40.66814705648349)" x="175.76708984374997"/><path d="M356.81865252442236 304.61399845079006L356.81865252442236 304.61399845079006Q340.40672382065003 304.61399845079006 328.5800699165688 312.5823113648873Q316.7254570198065 320.52266528630355 310.9379455348306 333.9988997585663Q305.12247505717363 347.4751342308291 305.12247505717363 364.94950465648105L305.12247505717363 364.94950465648105Q305.12247505717363 378.03431323120924 308.28184123013153 388.79852541341086Q311.41324841040836 399.5627375956124 317.704021763643 407.670845473115Q323.99479511687775 415.7789533506174 334.06003248205326 420.2523921795843Q344.15322883990984 424.7258310085512 357.21007842195695 424.7258310085512L357.21007842195695 424.7258310085512Q374.04139201594495 424.7258310085512 392.01902430985564 415.97466629938475L392.01902430985564 415.97466629938475L394.870841563322 430.429465515484Q380.2203293984554 439.6559331002283 355.25294893428395 439.6559331002283L355.25294893428395 439.6559331002283Q338.8410202305116 439.6559331002283 325.81212964114553 434.20392952742486Q312.78323905177945 428.7519259546214 304.28370527674235 418.7705655674891Q295.78417150170526 408.7892051803567 291.3666506581004 394.9774627959214Q286.9491298144956 381.1936794041671 286.9491298144956 364.278488832136L286.9491298144956 364.278488832136Q286.9491298144956 347.95043710640687 291.758076555635 334.19461270733365Q296.56702329677444 320.4387883082605 305.37410599130305 310.56926389185224Q314.1811886858316 300.671780482763 327.3498742386029 295.1638589245975Q340.51855979137423 289.655937366432 356.62293957565504 289.655937366432L356.62293957565504 289.655937366432Q381.1150171642488 289.655937366432 397.9183717655558 300.47606753399566L397.9183717655558 300.47606753399566L391.23617251478646 314.3437279037931Q375.1038337378246 304.61399845079006 356.81865252442236 304.61399845079006Z " fill="#747bff" transform="matrix(0.7111686032238052,0,0,0.7111686032238052,0,40.66814705648349)"/><path d="M645.5136167247882 303.1648588179641L645.5136167247882 303.1648588179641Q633.045476525417 303.1648588179641 624.0607690222927 309.21838514985643Q615.0548210758985 315.25067103847886 610.6580493190505 325.4885646945213Q606.2400371189326 335.72645835056375 606.2400371189326 349.00173539418716L606.2400371189326 349.00173539418716Q606.2400371189326 358.94226284445244 608.6402072084197 367.11983350332446Q611.019136854637 375.29740416219653 615.7982365903415 381.4571327104378Q620.577336326046 387.6168612586791 628.223895903173 391.0153321818467Q635.89169592357 394.4138031050143 645.8109829305655 394.4138031050143L645.8109829305655 394.4138031050143Q658.5977297789835 394.4138031050143 672.2553348014634 387.76554436156766L672.2553348014634 387.76554436156766L674.4218600149827 398.746853532053Q663.2918677416088 405.7561998110862 644.3241519016796 405.7561998110862L644.3241519016796 405.7561998110862Q631.8560117023084 405.7561998110862 621.9579651385828 401.6143133734757Q612.0599185748571 397.47242693586514 605.6028238208387 389.88958868854746Q599.1457290668203 382.3067504412297 595.7897390301922 371.81397146594975Q592.4337489935642 361.34243293393956 592.4337489935642 348.49196475571205L592.4337489935642 348.49196475571205Q592.4337489935642 336.0875458861503 596.0871052359694 325.6372477974099Q599.7404614783746 315.1869497086695 606.4312011083608 307.68907323443096Q613.121940738347 300.16995631692265 623.1261895184217 295.98558899277253Q633.1304382984963 291.8012216686224 645.3649336218997 291.8012216686224L645.3649336218997 291.8012216686224Q663.9715619262423 291.8012216686224 676.7370683313906 300.02127321403407L676.7370683313906 300.02127321403407L671.6606023899091 310.5565330758536Q659.4048666232358 303.1648588179641 645.5136167247882 303.1648588179641ZM688.2281481403511 376.78423519108236L688.2281481403511 376.78423519108236L688.2281481403511 322.1962959877027L700.7812501128014 322.1962959877027L700.7812501128014 376.93291829397094Q700.7812501128014 382.3067504412297 702.310562028227 386.0450684567141Q703.8398739436523 389.78338647219846 706.707333785075 391.8437094693688Q709.5960340697675 393.88279202326936 713.2069094256331 394.79613108387065Q716.8390252247684 395.68822970120215 721.5331631873937 395.68822970120215L721.5331631873937 395.68822970120215Q731.2400457616911 395.68822970120215 736.6563587954895 391.4189006039729Q742.0726718292879 387.17081195001333 742.0726718292879 376.93291829397094L742.0726718292879 376.93291829397094L742.0726718292879 322.1962959877027L754.6257738017382 322.1962959877027L754.6257738017382 376.78423519108236Q754.6257738017382 383.07140639894243 752.8203361238054 388.06291056734483Q751.0361388891424 393.0756551790171 748.0199959448312 396.3891643291055Q744.9826125572501 399.7239139224637 740.7345239032907 401.89043913598306Q736.4651948060614 404.0357239062326 731.7285759568965 405.01278429664325Q726.9919571077317 405.98984468705396 721.5331631873937 405.98984468705396L721.5331631873937 405.98984468705396Q716.1593310401349 405.98984468705396 711.3802313044305 405.01278429664325Q706.601131568726 404.0357239062326 702.310562028227 401.8479582494435Q698.0199924877277 399.6389521493845 694.9188877703373 396.32544299929606Q691.8177830529469 392.99069340593786 690.0335858182839 387.99918923753546Q688.2281481403511 382.98644462586327 688.2281481403511 376.78423519108236ZM785.6793018621822 438.8488104254307L773.211161662811 439.65594726968305L773.211161662811 322.1962959877027L784.1924708332963 322.1962959877027L785.381935656405 333.3262882610766Q796.1295999509225 320.4758200828491 811.2315551157487 320.4758200828491L811.2315551157487 320.4758200828491Q822.4252687189319 320.4758200828491 830.1992709556778 326.08329710607563Q837.9520327491539 331.6907741293022 841.6478698780986 341.24897360071105Q845.3437070070436 350.80717307211995 845.3437070070436 363.5726794772683L845.3437070070436 363.5726794772683Q845.3437070070436 375.8284152439415 841.308022785782 385.34413382881075Q837.2723385645204 394.8598524136801 829.4770958845047 400.3398867772878Q821.681853204489 405.8411615841654 811.2315551157487 405.8411615841654L811.2315551157487 405.8411615841654Q803.3088697761141 405.8411615841654 796.3632448268904 402.2940075581092Q789.4176198776665 398.746853532053 785.2332525535164 392.9269720761285L785.2332525535164 392.9269720761285Q785.6793018621822 400.97710007538177 785.6793018621822 408.60241920923903L785.6793018621822 408.60241920923903L785.6793018621822 438.8488104254307ZM809.5110792108951 395.3059017223458L809.5110792108951 395.3059017223458Q815.1822775639309 395.3059017223458 819.6640110938583 392.7358080867003Q824.1457446237855 390.1657144510548 826.9070022488593 385.68398092112756Q829.6682598739328 381.2022473912003 831.0913695730094 375.4885681516247Q832.493238828816 369.77488891204916 832.493238828816 363.12663016860256L832.493238828816 363.12663016860256Q832.493238828816 349.0866971672664 826.609636043082 340.08074922087224Q820.7047928140782 331.0960417177478 809.3623961080064 331.0960417177478L809.3623961080064 331.0960417177478Q785.6155805323729 331.0960417177478 785.6155805323729 361.7884822426053L785.6155805323729 361.7884822426053Q785.6155805323729 378.44098976612656 791.1805766690597 386.87344574423616Q796.7455728057466 395.3059017223458 809.5110792108951 395.3059017223458ZM897.5527165642059 405.8411615841654L897.5527165642059 405.8411615841654Q879.4770993416082 405.8411615841654 869.2816865721052 394.11643689923716Q859.0862738026024 382.3917122143089 859.0862738026024 363.4239963743797L859.0862738026024 363.4239963743797Q859.1712355756817 344.30759743156193 869.4940910048033 332.3917087572055Q879.8381868771946 320.4758200828491 897.8500827699829 320.4758200828491L897.8500827699829 320.4758200828491Q904.1797348643827 320.4758200828491 910.127058979926 322.0476128848141Q916.0531426521995 323.61940568677915 919.4940944619066 326.16825887915485L919.4940944619066 326.16825887915485L916.0531426521995 335.8751414534523Q907.3233204683127 331.15976304755725 897.6164378940152 331.15976304755725L897.6164378940152 331.15976304755725Q885.7430301061984 331.15976304755725 878.8398860435141 339.82586390163465Q871.93674198083 348.49196475571205 871.93674198083 363.4877177041891L871.93674198083 363.4877177041891Q871.93674198083 378.1436235603494 878.7549242704349 386.682281754808Q885.5943470033098 395.2421803925364 897.7013996670944 395.2421803925364L897.7013996670944 395.2421803925364Q907.3233204683127 395.2421803925364 917.4125310214665 390.0170313481662L917.4125310214665 390.0170313481662L918.9843238234316 399.9363183551617Q910.8279936078293 405.8411615841654 897.5527165642059 405.8411615841654ZM958.8526358408415 395.7519510310116L958.8526358408415 395.7519510310116Q967.7311411276169 395.7519510310116 974.4856020874124 390.8666490789581Q981.261303490478 385.9813471269047 983.1941838280295 377.67633380841386L983.1941838280295 377.67633380841386L983.1941838280295 363.8700456830455Q982.8118558491731 363.8700456830455 978.6699694115625 364.2523736619018Q974.528082973952 364.61346119748833 973.2536563777642 364.69842297056755L973.2536563777642 364.69842297056755Q957.0684386061785 366.121532669644 950.6750651819693 369.9872933447471Q944.2816917577604 373.87429446312007 944.2816917577604 382.4554335441183L944.2816917577604 382.4554335441183Q944.2816917577604 389.03997095775554 948.1686928761333 392.39596099438353Q952.0556939945063 395.7519510310116 958.8526358408415 395.7519510310116ZM995.6623240274007 404.1206856793118L985.955441453103 404.1206856793118Q984.8296979598038 399.34158594360736 983.7889162395838 393.81907069346L983.7889162395838 393.81907069346Q976.9919743932485 400.6160125397952 971.0234098344354 403.2285870619803Q965.0548452756223 405.8411615841654 956.9834768330993 405.8411615841654L956.9834768330993 405.8411615841654Q945.4923970241389 405.8411615841654 938.5042911883754 399.8301161388127Q931.5161853526122 393.81907069346 931.5161853526122 382.5403953171975L931.5161853526122 382.5403953171975Q931.5161853526122 369.9872933447471 941.0319039374813 363.95500745612463Q950.5688629656204 357.90148112423236 968.4745566420597 356.41465009534653L968.4745566420597 356.41465009534653Q970.9384480613562 356.18100521937873 975.908711786489 355.7774367972526Q980.8789755116215 355.35262793185666 983.342866930918 355.14022349915865L983.342866930918 355.14022349915865L983.342866930918 347.8972323441577Q983.342866930918 339.2311314900803 979.3071827096564 335.0467641659302Q975.2714984883951 330.8623968417801 966.6266380775874 330.8623968417801L966.6266380775874 330.8623968417801Q954.5195854138028 330.8623968417801 942.2001283173202 336.8309614005932L942.2001283173202 336.8309614005932Q941.8178003384639 335.9388627832617 940.2672479797686 331.6482932427626Q938.6954551778035 327.3577237022635 938.6104934047244 327.20904059937493L938.6104934047244 327.20904059937493Q944.0692873250625 324.15041676852405 951.5671637993009 322.3237386473215Q959.0650402735396 320.4758200828491 966.8390425102855 320.4758200828491L966.8390425102855 320.4758200828491Q982.1534021078094 320.4758200828491 988.9078630676049 327.1665597128353Q995.6623240274007 333.85729934282153 995.6623240274007 349.91507445478845L995.6623240274007 349.91507445478845L995.6623240274007 404.1206856793118ZM1029.7107545888862 404.1206856793118L1017.3275761625941 404.1206856793118L1017.3275761625941 290.3993524128158L1029.7107545888862 289.65593689837283L1029.7107545888862 349.15041849707575L1029.7107545888862 359.62195702908593Q1030.156803897552 359.1759077204202 1031.0701429581532 358.11388555693037Q1031.9622415754848 357.07310383671023 1032.4720122139597 356.5633331982351L1032.4720122139597 356.5633331982351Q1038.971587854518 349.4690251461227 1066.0743934667794 322.1962959877027L1066.0743934667794 322.1962959877027L1081.9197641460482 322.1962959877027L1047.8713335845632 356.7120163011237L1084.298693792266 404.1206856793118L1068.7719297620438 404.1206856793118L1038.8229047516293 363.80632435323605L1029.7107545888862 371.6440479197914L1029.7107545888862 404.1206856793118ZM1140.7133111168478 337.3194915957985Q1135.2332767532403 330.79867551197066 1125.6750772818314 330.79867551197066Q1116.1168778104225 330.79867551197066 1110.06335147853 337.5531364717663Q1104.009825146638 344.30759743156193 1102.969043426418 356.03232211649015L1102.969043426418 356.03232211649015L1146.2145859237257 356.03232211649015Q1146.2145859237257 343.8615481228962 1140.7133111168478 337.3194915957985ZM1128.1389687011279 405.8411615841654L1128.1389687011279 405.8411615841654Q1110.2969963544979 405.8411615841654 1100.0166218119161 394.4775244348237Q1089.757487712604 383.1351277287518 1089.757487712604 363.4239963743797L1089.757487712604 363.4239963743797Q1089.757487712604 344.3713187613713 1099.676774719599 332.5403918600941Q1109.6173021698646 320.70946495881685 1125.8237603847201 320.4758200828491L1125.8237603847201 320.4758200828491Q1141.0531582091648 320.4758200828491 1149.9741443824796 330.90487772831966Q1158.8951305557948 341.3126949305205 1158.8951305557948 358.7086179684847L1158.8951305557948 358.7086179684847Q1158.8951305557948 359.62195702908593 1158.8738901125248 362.00088667530326Q1158.8314092259852 364.4010567647904 1158.8314092259852 365.44183848501046L1158.8314092259852 365.44183848501046L1102.6079558908314 365.44183848501046Q1102.8203603235293 379.3968097132675 1109.8084661592925 387.21329283655297Q1116.7753315517862 395.00853551656866 1128.5850180097937 395.00853551656866L1128.5850180097937 395.00853551656866Q1141.5841692909098 395.00853551656866 1154.647041901835 388.14787234042404L1154.647041901835 388.14787234042404L1156.5799222393866 398.21584245030806Q1144.111782040016 405.8411615841654 1128.1389687011279 405.8411615841654ZM1200.6538420242168 405.8411615841654L1200.6538420242168 405.8411615841654Q1192.2851073759166 405.8411615841654 1185.2332802103438 404.0357239062326Q1178.160212601501 402.2515266715696 1173.763440844653 399.4265477166865L1173.763440844653 399.4265477166865L1175.3352336466182 388.89128785486696Q1187.8033738459894 395.53954659831356 1199.8254647366948 395.53954659831356L1199.8254647366948 395.53954659831356Q1218.049765062181 395.53954659831356 1218.5595357006564 382.68907842008605L1218.5595357006564 382.68907842008605Q1218.5595357006564 377.2302844997481 1214.6725345822833 374.10793933908786Q1210.8067739071798 370.96435373515783 1199.4431367578381 367.0773526167849L1199.4431367578381 367.0773526167849L1193.2409273230573 364.9108274032655Q1182.4932630285398 361.34243293393956 1177.9053272822634 356.03232211649015Q1173.317391535987 350.7222112990408 1173.232429762908 342.8207664026761L1173.232429762908 342.8207664026761Q1173.232429762908 333.177605158188 1180.9639511131145 326.82671262051855Q1188.6954724633206 320.4758200828491 1202.1406730531025 320.4758200828491L1202.1406730531025 320.4758200828491Q1216.0319229515503 320.4758200828491 1227.4592814307011 325.8708926733777L1227.4592814307011 325.8708926733777L1223.7846847450264 335.4290921447866Q1212.2086431629868 330.64999240908213 1202.1406730531025 330.64999240908213L1202.1406730531025 330.64999240908213Q1194.3029494865473 330.64999240908213 1189.8636968431597 333.75109712647253Q1185.403203756502 336.8309614005932 1185.403203756502 342.4384384238197L1185.403203756502 342.4384384238197Q1185.403203756502 347.21753815952417 1188.6317511335114 349.76639135189987Q1191.8390580672508 352.2940041010058 1201.4609788684693 355.5862728078244L1201.4609788684693 355.5862728078244Q1203.9248702877653 356.4783714251559 1207.66318830325 357.66783624826456L1207.66318830325 357.66783624826456Q1220.0676071728117 361.7035204695261 1225.207794444103 367.2047952764037Q1230.3692221586634 372.6848296400114 1230.3692221586634 382.00938423545256L1230.3692221586634 382.00938423545256Q1230.2205390557751 393.37302138479424 1222.234132386331 399.5964712628449Q1214.2264852736175 405.8411615841654 1200.6538420242168 405.8411615841654Z " fill="#161b21" transform="matrix(0.7111686032238052,0,0,0.7111686032238052,0,40.66814705648349)"/></g></svg>